<mxfile host="65bd71144e">
    <diagram name="dataModel" id="65Tec_bHAF0Uo1cOFPuN">
        <mxGraphModel dx="2391" dy="1296" grid="1" gridSize="10" guides="1" tooltips="1" connect="1" arrows="1" fold="1" page="1" pageScale="1" pageWidth="827" pageHeight="1169" background="#ffffff" math="0" shadow="0">
            <root>
                <mxCell id="0"/>
                <mxCell id="1" parent="0"/>
                <mxCell id="Wsoe4sBbVNy_n7_w70QO-10" value="ToolStatusEnum" style="swimlane;fontStyle=0;childLayout=stackLayout;horizontal=1;startSize=26;fillColor=none;horizontalStack=0;resizeParent=1;resizeParentMax=0;resizeLast=0;collapsible=1;marginBottom=0;whiteSpace=wrap;html=1;" parent="1" vertex="1">
                    <mxGeometry x="1200" y="480" width="230" height="52" as="geometry"/>
                </mxCell>
                <mxCell id="Wsoe4sBbVNy_n7_w70QO-11" value="AVAILABLE, UNAVAILABLE, SERVICE&amp;nbsp;" style="text;strokeColor=none;fillColor=none;align=center;verticalAlign=top;spacingLeft=4;spacingRight=4;overflow=hidden;rotatable=0;points=[[0,0.5],[1,0.5]];portConstraint=eastwest;whiteSpace=wrap;html=1;" parent="Wsoe4sBbVNy_n7_w70QO-10" vertex="1">
                    <mxGeometry y="26" width="230" height="26" as="geometry"/>
                </mxCell>
                <mxCell id="Wsoe4sBbVNy_n7_w70QO-15" value="ToolEntity" style="swimlane;childLayout=stackLayout;horizontal=1;startSize=50;horizontalStack=0;rounded=1;fontSize=14;fontStyle=0;strokeWidth=2;resizeParent=0;resizeLast=1;shadow=0;dashed=0;align=center;arcSize=4;whiteSpace=wrap;html=1;" parent="1" vertex="1">
                    <mxGeometry x="970" y="480" width="200" height="190" as="geometry"/>
                </mxCell>
                <mxCell id="Wsoe4sBbVNy_n7_w70QO-16" value="+ id: number&lt;br&gt;&lt;div&gt;+ name: string&lt;/div&gt;&lt;div&gt;+ serial: number&lt;div&gt;&lt;/div&gt;&lt;div&gt;+ type: toolType.id&lt;/div&gt;&lt;/div&gt;&lt;div&gt;+ status: ToolStatusEnum&lt;/div&gt;&lt;div&gt;+ createdTime: ZonedDateTime&lt;/div&gt;&lt;div&gt;+ createdBy: user.id&lt;div&gt;&lt;/div&gt;&lt;div&gt;&lt;div&gt;+ modifiedTime: ZonedDateTime&lt;/div&gt;&lt;div&gt;+ modifiedBy: user.id&lt;/div&gt;&lt;/div&gt;&lt;/div&gt;" style="align=left;strokeColor=none;fillColor=none;spacingLeft=4;spacingRight=4;fontSize=12;verticalAlign=top;resizable=0;rotatable=0;part=1;html=1;whiteSpace=wrap;" parent="Wsoe4sBbVNy_n7_w70QO-15" vertex="1">
                    <mxGeometry y="50" width="200" height="140" as="geometry"/>
                </mxCell>
                <mxCell id="Wsoe4sBbVNy_n7_w70QO-17" value="UserEntity" style="swimlane;childLayout=stackLayout;horizontal=1;startSize=50;horizontalStack=0;rounded=1;fontSize=14;fontStyle=0;strokeWidth=2;resizeParent=0;resizeLast=1;shadow=0;dashed=0;align=center;arcSize=4;whiteSpace=wrap;html=1;" parent="1" vertex="1">
                    <mxGeometry x="320" y="450" width="200" height="180" as="geometry"/>
                </mxCell>
                <mxCell id="Wsoe4sBbVNy_n7_w70QO-18" value="+ id: number&lt;br&gt;&lt;div&gt;+ name: string&lt;br&gt;&lt;div&gt;+ email: string&lt;br&gt;&lt;div&gt;+ passwordHash: string&lt;/div&gt;&lt;/div&gt;&lt;/div&gt;&lt;div&gt;+&amp;nbsp;createdTime: ZonedDateTime&lt;/div&gt;&lt;div&gt;+&amp;nbsp;createdBy: user.id&lt;/div&gt;&lt;div&gt;&lt;div&gt;+ modifiedTime: ZonedDateTime&lt;/div&gt;&lt;div&gt;+ modifiedBy: user.id&lt;/div&gt;&lt;br&gt;&lt;/div&gt;" style="align=left;strokeColor=none;fillColor=none;spacingLeft=4;spacingRight=4;fontSize=12;verticalAlign=top;resizable=0;rotatable=0;part=1;html=1;whiteSpace=wrap;" parent="Wsoe4sBbVNy_n7_w70QO-17" vertex="1">
                    <mxGeometry y="50" width="200" height="130" as="geometry"/>
                </mxCell>
                <mxCell id="Wsoe4sBbVNy_n7_w70QO-19" value="&lt;div&gt;UserMapRoleEntity&lt;/div&gt;" style="swimlane;childLayout=stackLayout;horizontal=1;startSize=50;horizontalStack=0;rounded=1;fontSize=14;fontStyle=0;strokeWidth=2;resizeParent=0;resizeLast=1;shadow=0;dashed=0;align=center;arcSize=4;whiteSpace=wrap;html=1;" parent="1" vertex="1">
                    <mxGeometry x="190" y="220" width="200" height="140" as="geometry"/>
                </mxCell>
                <mxCell id="Wsoe4sBbVNy_n7_w70QO-20" value="+ id: number&lt;br&gt;&lt;div&gt;+ userId: user.id&lt;br&gt;&lt;div&gt;+ roleId: role.id&lt;/div&gt;&lt;/div&gt;&lt;div&gt;+&amp;nbsp;createdTime: ZonedDateTime&lt;/div&gt;&lt;div&gt;+&amp;nbsp;createdBy: user.id&lt;/div&gt;" style="align=left;strokeColor=none;fillColor=none;spacingLeft=4;spacingRight=4;fontSize=12;verticalAlign=top;resizable=0;rotatable=0;part=1;html=1;whiteSpace=wrap;" parent="Wsoe4sBbVNy_n7_w70QO-19" vertex="1">
                    <mxGeometry y="50" width="200" height="90" as="geometry"/>
                </mxCell>
                <mxCell id="Wsoe4sBbVNy_n7_w70QO-21" value="RoleEntity" style="swimlane;childLayout=stackLayout;horizontal=1;startSize=50;horizontalStack=0;rounded=1;fontSize=14;fontStyle=0;strokeWidth=2;resizeParent=0;resizeLast=1;shadow=0;dashed=0;align=center;arcSize=4;whiteSpace=wrap;html=1;" parent="1" vertex="1">
                    <mxGeometry x="30" y="465" width="200" height="150" as="geometry"/>
                </mxCell>
                <mxCell id="Wsoe4sBbVNy_n7_w70QO-22" value="+ id: number&lt;br&gt;&lt;div&gt;+ name: string&lt;/div&gt;&lt;div&gt;+&amp;nbsp;createdTime: ZonedDateTime&lt;/div&gt;&lt;div&gt;+&amp;nbsp;createdBy: user.id&lt;/div&gt;&lt;div&gt;&lt;div&gt;+ modifiedTime: ZonedDateTime&lt;/div&gt;&lt;div&gt;+ modifiedBy: user.id&lt;/div&gt;&lt;br&gt;&lt;/div&gt;" style="align=left;strokeColor=none;fillColor=none;spacingLeft=4;spacingRight=4;fontSize=12;verticalAlign=top;resizable=0;rotatable=0;part=1;html=1;whiteSpace=wrap;" parent="Wsoe4sBbVNy_n7_w70QO-21" vertex="1">
                    <mxGeometry y="50" width="200" height="100" as="geometry"/>
                </mxCell>
                <mxCell id="Wsoe4sBbVNy_n7_w70QO-23" value="LendingAgreementEntity" style="swimlane;childLayout=stackLayout;horizontal=1;startSize=50;horizontalStack=0;rounded=1;fontSize=14;fontStyle=0;strokeWidth=2;resizeParent=0;resizeLast=1;shadow=0;dashed=0;align=center;arcSize=4;whiteSpace=wrap;html=1;" parent="1" vertex="1">
                    <mxGeometry x="620" y="60" width="280" height="210" as="geometry"/>
                </mxCell>
                <mxCell id="Wsoe4sBbVNy_n7_w70QO-24" value="+ id: number&lt;br&gt;&lt;div&gt;+ toolId: tool.id&lt;/div&gt;&lt;div&gt;+ borrowerId: user.id&lt;/div&gt;&lt;div&gt;+ lendingStartTime: ZonedDateTime&lt;/div&gt;&lt;div&gt;+ expectedReturnTime: ZonedDateTime&lt;br&gt;+ returnTime: ZonedDateTime&lt;/div&gt;&lt;div&gt;+ createdTime: ZonedDateTime&lt;/div&gt;&lt;div&gt;+ createdBy: user.id&lt;div&gt;&lt;/div&gt;&lt;div&gt;&lt;div&gt;+ modifiedTime: ZonedDateTime&lt;/div&gt;&lt;div&gt;+ modifiedBy: user.id&lt;/div&gt;&lt;/div&gt;&lt;/div&gt;" style="align=left;strokeColor=none;fillColor=none;spacingLeft=4;spacingRight=4;fontSize=12;verticalAlign=top;resizable=0;rotatable=0;part=1;html=1;whiteSpace=wrap;" parent="Wsoe4sBbVNy_n7_w70QO-23" vertex="1">
                    <mxGeometry y="50" width="280" height="160" as="geometry"/>
                </mxCell>
                <mxCell id="Wsoe4sBbVNy_n7_w70QO-27" value="FeeEntity" style="swimlane;childLayout=stackLayout;horizontal=1;startSize=50;horizontalStack=0;rounded=1;fontSize=14;fontStyle=0;strokeWidth=2;resizeParent=0;resizeLast=1;shadow=0;dashed=0;align=center;arcSize=4;whiteSpace=wrap;html=1;" parent="1" vertex="1">
                    <mxGeometry x="620" y="330" width="280" height="185" as="geometry"/>
                </mxCell>
                <mxCell id="Wsoe4sBbVNy_n7_w70QO-28" value="+ id: number&lt;br&gt;&lt;div&gt;+ lendingAgreementId: lendingAgreement.id&lt;/div&gt;&lt;div&gt;+ reason: string&lt;/div&gt;&lt;div&gt;+ feeAmount: number&lt;/div&gt;&lt;div&gt;+ createdTime: ZonedDateTime&lt;/div&gt;&lt;div&gt;+ createdBy: user.id&lt;div&gt;&lt;/div&gt;&lt;div&gt;&lt;div&gt;+ modifiedTime: ZonedDateTime&lt;/div&gt;&lt;div&gt;+ modifiedBy: user.id&lt;/div&gt;&lt;/div&gt;&lt;/div&gt;" style="align=left;strokeColor=none;fillColor=none;spacingLeft=4;spacingRight=4;fontSize=12;verticalAlign=top;resizable=0;rotatable=0;part=1;html=1;whiteSpace=wrap;" parent="Wsoe4sBbVNy_n7_w70QO-27" vertex="1">
                    <mxGeometry y="50" width="280" height="135" as="geometry"/>
                </mxCell>
                <mxCell id="Wsoe4sBbVNy_n7_w70QO-29" value="DamageReportEntity" style="swimlane;childLayout=stackLayout;horizontal=1;startSize=50;horizontalStack=0;rounded=1;fontSize=14;fontStyle=0;strokeWidth=2;resizeParent=0;resizeLast=1;shadow=0;dashed=0;align=center;arcSize=4;whiteSpace=wrap;html=1;" parent="1" vertex="1">
                    <mxGeometry x="600" y="750" width="280" height="180" as="geometry"/>
                </mxCell>
                <mxCell id="Wsoe4sBbVNy_n7_w70QO-30" value="+ id: number&lt;br&gt;&lt;div&gt;+ lendingAgreementId?: lendingAgreement.id&lt;/div&gt;&lt;div&gt;+ toolId: tool.id&lt;/div&gt;&lt;div&gt;+ description: string&lt;/div&gt;&lt;div&gt;+ createdTime: ZonedDateTime&lt;/div&gt;&lt;div&gt;+ createdBy: user.id&lt;div&gt;&lt;/div&gt;&lt;div&gt;&lt;div&gt;+ modifiedTime: ZonedDateTime&lt;/div&gt;&lt;div&gt;+ modifiedBy: user.id&lt;/div&gt;&lt;/div&gt;&lt;/div&gt;" style="align=left;strokeColor=none;fillColor=none;spacingLeft=4;spacingRight=4;fontSize=12;verticalAlign=top;resizable=0;rotatable=0;part=1;html=1;whiteSpace=wrap;" parent="Wsoe4sBbVNy_n7_w70QO-29" vertex="1">
                    <mxGeometry y="50" width="280" height="130" as="geometry"/>
                </mxCell>
                <mxCell id="Wsoe4sBbVNy_n7_w70QO-33" value="ToolTypeEntity" style="swimlane;childLayout=stackLayout;horizontal=1;startSize=50;horizontalStack=0;rounded=1;fontSize=14;fontStyle=0;strokeWidth=2;resizeParent=0;resizeLast=1;shadow=0;dashed=0;align=center;arcSize=4;whiteSpace=wrap;html=1;" parent="1" vertex="1">
                    <mxGeometry x="630" y="585" width="200" height="150" as="geometry"/>
                </mxCell>
                <mxCell id="Wsoe4sBbVNy_n7_w70QO-34" value="+ id: number&lt;br&gt;&lt;div&gt;+ name: string&lt;/div&gt;&lt;div&gt;+&amp;nbsp;createdTime: ZonedDateTime&lt;/div&gt;&lt;div&gt;+&amp;nbsp;createdBy: user.id&lt;/div&gt;&lt;div&gt;&lt;div&gt;+ modifiedTime: ZonedDateTime&lt;/div&gt;&lt;div&gt;+ modifiedBy: user.id&lt;/div&gt;&lt;br&gt;&lt;/div&gt;" style="align=left;strokeColor=none;fillColor=none;spacingLeft=4;spacingRight=4;fontSize=12;verticalAlign=top;resizable=0;rotatable=0;part=1;html=1;whiteSpace=wrap;" parent="Wsoe4sBbVNy_n7_w70QO-33" vertex="1">
                    <mxGeometry y="50" width="200" height="100" as="geometry"/>
                </mxCell>
                <mxCell id="Wsoe4sBbVNy_n7_w70QO-35" value="ToolServiceEntity" style="swimlane;childLayout=stackLayout;horizontal=1;startSize=50;horizontalStack=0;rounded=1;fontSize=14;fontStyle=0;strokeWidth=2;resizeParent=0;resizeLast=1;shadow=0;dashed=0;align=center;arcSize=4;whiteSpace=wrap;html=1;" parent="1" vertex="1">
                    <mxGeometry x="160" y="750" width="280" height="180" as="geometry"/>
                </mxCell>
                <mxCell id="Wsoe4sBbVNy_n7_w70QO-36" value="+ id: number&lt;br&gt;&lt;div&gt;+ damageReportId: damageReport.id&lt;/div&gt;&lt;div&gt;+ serviceStartTime: ZonedDateTime&lt;/div&gt;&lt;div&gt;&lt;div&gt;+ serviceStopTime: ZonedDateTime&lt;/div&gt;&lt;/div&gt;&lt;div&gt;+ createdTime: ZonedDateTime&lt;/div&gt;&lt;div&gt;+ createdBy: user.id&lt;div&gt;&lt;/div&gt;&lt;div&gt;&lt;div&gt;+ modifiedTime: ZonedDateTime&lt;/div&gt;&lt;div&gt;+ modifiedBy: user.id&lt;/div&gt;&lt;/div&gt;&lt;/div&gt;" style="align=left;strokeColor=none;fillColor=none;spacingLeft=4;spacingRight=4;fontSize=12;verticalAlign=top;resizable=0;rotatable=0;part=1;html=1;whiteSpace=wrap;" parent="Wsoe4sBbVNy_n7_w70QO-35" vertex="1">
                    <mxGeometry y="50" width="280" height="130" as="geometry"/>
                </mxCell>
                <mxCell id="4" value="" style="edgeStyle=orthogonalEdgeStyle;fontSize=12;html=1;endArrow=ERoneToMany;exitX=0.5;exitY=0;exitDx=0;exitDy=0;rounded=1;entryX=0.25;entryY=1;entryDx=0;entryDy=0;" edge="1" parent="1" source="Wsoe4sBbVNy_n7_w70QO-21" target="Wsoe4sBbVNy_n7_w70QO-20">
                    <mxGeometry width="100" height="100" relative="1" as="geometry">
                        <mxPoint x="450" y="280" as="sourcePoint"/>
                        <mxPoint x="320" y="190" as="targetPoint"/>
                        <Array as="points">
                            <mxPoint x="130" y="410"/>
                            <mxPoint x="240" y="410"/>
                        </Array>
                    </mxGeometry>
                </mxCell>
                <mxCell id="5" value="" style="edgeStyle=orthogonalEdgeStyle;fontSize=12;html=1;endArrow=ERoneToMany;entryX=0.75;entryY=1;entryDx=0;entryDy=0;exitX=0.5;exitY=0;exitDx=0;exitDy=0;" edge="1" parent="1" source="Wsoe4sBbVNy_n7_w70QO-17" target="Wsoe4sBbVNy_n7_w70QO-20">
                    <mxGeometry width="100" height="100" relative="1" as="geometry">
                        <mxPoint x="610" y="310" as="sourcePoint"/>
                        <mxPoint x="710" y="210" as="targetPoint"/>
                    </mxGeometry>
                </mxCell>
                <mxCell id="7" value="" style="edgeStyle=orthogonalEdgeStyle;fontSize=12;html=1;endArrow=ERoneToMany;exitX=1;exitY=0.5;exitDx=0;exitDy=0;entryX=0;entryY=0.25;entryDx=0;entryDy=0;" edge="1" parent="1" source="Wsoe4sBbVNy_n7_w70QO-18" target="Wsoe4sBbVNy_n7_w70QO-16">
                    <mxGeometry width="100" height="100" relative="1" as="geometry">
                        <mxPoint x="420" y="630" as="sourcePoint"/>
                        <mxPoint x="520" y="530" as="targetPoint"/>
                    </mxGeometry>
                </mxCell>
                <mxCell id="8" value="" style="edgeStyle=orthogonalEdgeStyle;fontSize=12;html=1;endArrow=ERoneToMany;exitX=1;exitY=0.5;exitDx=0;exitDy=0;entryX=0;entryY=0.5;entryDx=0;entryDy=0;" edge="1" parent="1" source="Wsoe4sBbVNy_n7_w70QO-34" target="Wsoe4sBbVNy_n7_w70QO-16">
                    <mxGeometry width="100" height="100" relative="1" as="geometry">
                        <mxPoint x="420" y="730" as="sourcePoint"/>
                        <mxPoint x="520" y="630" as="targetPoint"/>
                    </mxGeometry>
                </mxCell>
                <mxCell id="9" value="" style="edgeStyle=orthogonalEdgeStyle;fontSize=12;html=1;endArrow=ERoneToMany;entryX=1;entryY=0.5;entryDx=0;entryDy=0;exitX=0.5;exitY=0;exitDx=0;exitDy=0;" edge="1" parent="1" source="Wsoe4sBbVNy_n7_w70QO-15" target="Wsoe4sBbVNy_n7_w70QO-24">
                    <mxGeometry width="100" height="100" relative="1" as="geometry">
                        <mxPoint x="670" y="559" as="sourcePoint"/>
                        <mxPoint x="790" y="490" as="targetPoint"/>
                        <Array as="points">
                            <mxPoint x="1070" y="190"/>
                        </Array>
                    </mxGeometry>
                </mxCell>
                <mxCell id="11" value="" style="edgeStyle=orthogonalEdgeStyle;fontSize=12;html=1;endArrow=ERoneToMany;entryX=0;entryY=0.5;entryDx=0;entryDy=0;exitX=1;exitY=0;exitDx=0;exitDy=0;" edge="1" parent="1" source="Wsoe4sBbVNy_n7_w70QO-18" target="Wsoe4sBbVNy_n7_w70QO-24">
                    <mxGeometry width="100" height="100" relative="1" as="geometry">
                        <mxPoint x="420" y="460" as="sourcePoint"/>
                        <mxPoint x="520" y="400" as="targetPoint"/>
                        <Array as="points">
                            <mxPoint x="550" y="500"/>
                            <mxPoint x="550" y="190"/>
                        </Array>
                    </mxGeometry>
                </mxCell>
                <mxCell id="12" value="" style="edgeStyle=orthogonalEdgeStyle;fontSize=12;html=1;endArrow=ERoneToMany;exitX=0.25;exitY=1;exitDx=0;exitDy=0;entryX=1;entryY=0.5;entryDx=0;entryDy=0;" edge="1" parent="1" source="Wsoe4sBbVNy_n7_w70QO-16" target="Wsoe4sBbVNy_n7_w70QO-30">
                    <mxGeometry width="100" height="100" relative="1" as="geometry">
                        <mxPoint x="630" y="770" as="sourcePoint"/>
                        <mxPoint x="950" y="820" as="targetPoint"/>
                        <Array as="points">
                            <mxPoint x="1020" y="865"/>
                        </Array>
                    </mxGeometry>
                </mxCell>
                <mxCell id="13" value="" style="fontSize=12;html=1;endArrow=ERoneToMany;exitX=0.75;exitY=1;exitDx=0;exitDy=0;entryX=0;entryY=0.25;entryDx=0;entryDy=0;edgeStyle=orthogonalEdgeStyle;" edge="1" parent="1" source="Wsoe4sBbVNy_n7_w70QO-18" target="Wsoe4sBbVNy_n7_w70QO-29">
                    <mxGeometry width="100" height="100" relative="1" as="geometry">
                        <mxPoint x="340" y="1010" as="sourcePoint"/>
                        <mxPoint x="440" y="910" as="targetPoint"/>
                        <Array as="points">
                            <mxPoint x="470" y="795"/>
                        </Array>
                    </mxGeometry>
                </mxCell>
                <mxCell id="14" value="" style="edgeStyle=orthogonalEdgeStyle;fontSize=12;html=1;endArrow=ERoneToMany;entryX=0;entryY=0.5;entryDx=0;entryDy=0;exitX=1;exitY=0.75;exitDx=0;exitDy=0;" edge="1" parent="1" source="Wsoe4sBbVNy_n7_w70QO-18" target="Wsoe4sBbVNy_n7_w70QO-34">
                    <mxGeometry width="100" height="100" relative="1" as="geometry">
                        <mxPoint x="60" y="780" as="sourcePoint"/>
                        <mxPoint x="160" y="680" as="targetPoint"/>
                    </mxGeometry>
                </mxCell>
                <mxCell id="16" value="" style="fontSize=12;html=1;endArrow=ERoneToMany;exitX=0;exitY=0.5;exitDx=0;exitDy=0;entryX=1;entryY=0.5;entryDx=0;entryDy=0;edgeStyle=orthogonalEdgeStyle;" edge="1" parent="1" source="Wsoe4sBbVNy_n7_w70QO-30" target="Wsoe4sBbVNy_n7_w70QO-36">
                    <mxGeometry width="100" height="100" relative="1" as="geometry">
                        <mxPoint x="550" y="1170" as="sourcePoint"/>
                        <mxPoint x="650" y="1070" as="targetPoint"/>
                    </mxGeometry>
                </mxCell>
                <mxCell id="17" value="" style="edgeStyle=orthogonalEdgeStyle;fontSize=12;html=1;endArrow=ERoneToMany;exitX=0.25;exitY=1;exitDx=0;exitDy=0;entryX=0.75;entryY=0;entryDx=0;entryDy=0;" edge="1" parent="1" source="Wsoe4sBbVNy_n7_w70QO-18" target="Wsoe4sBbVNy_n7_w70QO-35">
                    <mxGeometry width="100" height="100" relative="1" as="geometry">
                        <mxPoint x="250" y="770" as="sourcePoint"/>
                        <mxPoint x="340" y="660" as="targetPoint"/>
                        <Array as="points"/>
                    </mxGeometry>
                </mxCell>
                <mxCell id="18" value="" style="edgeStyle=orthogonalEdgeStyle;fontSize=12;html=1;endArrow=ERoneToMany;exitX=0.5;exitY=1;exitDx=0;exitDy=0;entryX=0.5;entryY=0;entryDx=0;entryDy=0;" edge="1" parent="1" source="Wsoe4sBbVNy_n7_w70QO-24" target="Wsoe4sBbVNy_n7_w70QO-27">
                    <mxGeometry width="100" height="100" relative="1" as="geometry">
                        <mxPoint x="970" y="480" as="sourcePoint"/>
                        <mxPoint x="1070" y="380" as="targetPoint"/>
                    </mxGeometry>
                </mxCell>
                <mxCell id="20" value="" style="edgeStyle=orthogonalEdgeStyle;fontSize=12;html=1;endArrow=ERoneToMany;entryX=0;entryY=0.5;entryDx=0;entryDy=0;exitX=1;exitY=0.25;exitDx=0;exitDy=0;" edge="1" parent="1" source="Wsoe4sBbVNy_n7_w70QO-18" target="Wsoe4sBbVNy_n7_w70QO-28">
                    <mxGeometry width="100" height="100" relative="1" as="geometry">
                        <mxPoint x="410" y="470" as="sourcePoint"/>
                        <mxPoint x="510" y="370" as="targetPoint"/>
                        <Array as="points">
                            <mxPoint x="590" y="533"/>
                            <mxPoint x="590" y="448"/>
                        </Array>
                    </mxGeometry>
                </mxCell>
                <mxCell id="21" value="" style="edgeStyle=entityRelationEdgeStyle;fontSize=12;html=1;endArrow=ERoneToMany;exitX=0;exitY=0.5;exitDx=0;exitDy=0;entryX=1;entryY=0.5;entryDx=0;entryDy=0;" edge="1" parent="1" source="Wsoe4sBbVNy_n7_w70QO-18" target="Wsoe4sBbVNy_n7_w70QO-22">
                    <mxGeometry width="100" height="100" relative="1" as="geometry">
                        <mxPoint x="170" y="410" as="sourcePoint"/>
                        <mxPoint x="270" y="310" as="targetPoint"/>
                    </mxGeometry>
                </mxCell>
            </root>
        </mxGraphModel>
    </diagram>
</mxfile>